<mxfile host="app.diagrams.net" modified="2021-06-25T03:57:10.770Z" agent="5.0 (Macintosh; Intel Mac OS X 10_14_6) AppleWebKit/537.36 (KHTML, like Gecko) Chrome/91.0.4472.106 Safari/537.36" etag="-mY5Aqflg7f4cARYnGZX" version="14.8.0" type="github">
  <diagram name="Page-1" id="74e2e168-ea6b-b213-b513-2b3c1d86103e">
    <mxGraphModel dx="815" dy="478" grid="1" gridSize="10" guides="1" tooltips="1" connect="1" arrows="1" fold="1" page="1" pageScale="1" pageWidth="1100" pageHeight="850" background="none" math="0" shadow="0">
      <root>
        <mxCell id="0" />
        <mxCell id="1" parent="0" />
        <mxCell id="77e6c97f196da883-1" value="Pool" style="swimlane;html=1;childLayout=stackLayout;startSize=20;rounded=0;shadow=0;labelBackgroundColor=none;strokeWidth=1;fontFamily=Verdana;fontSize=8;align=center;" parent="1" vertex="1">
          <mxGeometry x="70" y="40" width="960" height="750" as="geometry">
            <mxRectangle x="70" y="40" width="60" height="20" as="alternateBounds" />
          </mxGeometry>
        </mxCell>
        <mxCell id="77e6c97f196da883-33" style="edgeStyle=orthogonalEdgeStyle;rounded=1;html=1;labelBackgroundColor=none;startArrow=none;startFill=0;startSize=5;endArrow=classicThin;endFill=1;endSize=5;jettySize=auto;orthogonalLoop=1;strokeWidth=1;fontFamily=Verdana;fontSize=8" parent="77e6c97f196da883-1" source="77e6c97f196da883-13" target="77e6c97f196da883-15" edge="1">
          <mxGeometry relative="1" as="geometry" />
        </mxCell>
        <mxCell id="77e6c97f196da883-39" style="edgeStyle=orthogonalEdgeStyle;rounded=1;html=1;labelBackgroundColor=none;startArrow=none;startFill=0;startSize=5;endArrow=classicThin;endFill=1;endSize=5;jettySize=auto;orthogonalLoop=1;strokeWidth=1;fontFamily=Verdana;fontSize=8" parent="77e6c97f196da883-1" source="77e6c97f196da883-20" target="77e6c97f196da883-23" edge="1">
          <mxGeometry relative="1" as="geometry" />
        </mxCell>
        <mxCell id="77e6c97f196da883-40" style="edgeStyle=orthogonalEdgeStyle;rounded=1;html=1;labelBackgroundColor=none;startArrow=none;startFill=0;startSize=5;endArrow=classicThin;endFill=1;endSize=5;jettySize=auto;orthogonalLoop=1;strokeWidth=1;fontFamily=Verdana;fontSize=8" parent="77e6c97f196da883-1" source="77e6c97f196da883-23" target="77e6c97f196da883-24" edge="1">
          <mxGeometry relative="1" as="geometry" />
        </mxCell>
        <mxCell id="107ba76e4e335f99-1" style="edgeStyle=orthogonalEdgeStyle;rounded=1;html=1;labelBackgroundColor=none;startArrow=none;startFill=0;startSize=5;endArrow=classicThin;endFill=1;endSize=5;jettySize=auto;orthogonalLoop=1;strokeWidth=1;fontFamily=Verdana;fontSize=8" parent="77e6c97f196da883-1" source="77e6c97f196da883-17" target="77e6c97f196da883-18" edge="1">
          <mxGeometry relative="1" as="geometry" />
        </mxCell>
        <mxCell id="107ba76e4e335f99-2" style="edgeStyle=orthogonalEdgeStyle;rounded=1;html=1;labelBackgroundColor=none;startArrow=none;startFill=0;startSize=5;endArrow=classicThin;endFill=1;endSize=5;jettySize=auto;orthogonalLoop=1;strokeWidth=1;fontFamily=Verdana;fontSize=8" parent="77e6c97f196da883-1" source="77e6c97f196da883-22" target="77e6c97f196da883-14" edge="1">
          <mxGeometry relative="1" as="geometry">
            <Array as="points">
              <mxPoint x="660" y="610" />
              <mxPoint x="660" y="550" />
              <mxPoint x="400" y="550" />
            </Array>
          </mxGeometry>
        </mxCell>
        <mxCell id="107ba76e4e335f99-3" style="edgeStyle=orthogonalEdgeStyle;rounded=1;html=1;labelBackgroundColor=none;startArrow=none;startFill=0;startSize=5;endArrow=classicThin;endFill=1;endSize=5;jettySize=auto;orthogonalLoop=1;strokeColor=#000000;strokeWidth=1;fontFamily=Verdana;fontSize=8;fontColor=#000000;" parent="77e6c97f196da883-1" source="77e6c97f196da883-22" target="77e6c97f196da883-19" edge="1">
          <mxGeometry relative="1" as="geometry" />
        </mxCell>
        <mxCell id="107ba76e4e335f99-6" style="edgeStyle=orthogonalEdgeStyle;rounded=1;html=1;labelBackgroundColor=none;startArrow=none;startFill=0;startSize=5;endArrow=classicThin;endFill=1;endSize=5;jettySize=auto;orthogonalLoop=1;strokeWidth=1;fontFamily=Verdana;fontSize=8" parent="77e6c97f196da883-1" source="77e6c97f196da883-14" target="77e6c97f196da883-19" edge="1">
          <mxGeometry relative="1" as="geometry" />
        </mxCell>
        <mxCell id="77e6c97f196da883-3" value="Lane 2" style="swimlane;html=1;startSize=20;" parent="77e6c97f196da883-1" vertex="1">
          <mxGeometry y="20" width="160" height="730" as="geometry" />
        </mxCell>
        <mxCell id="77e6c97f196da883-11" value="" style="rounded=1;whiteSpace=wrap;html=1;shadow=0;labelBackgroundColor=none;strokeWidth=1;fontFamily=Verdana;fontSize=8;align=center;" parent="77e6c97f196da883-3" vertex="1">
          <mxGeometry x="30" y="65" width="100" height="60" as="geometry" />
        </mxCell>
        <mxCell id="77e6c97f196da883-4" value="Lane 3" style="swimlane;html=1;startSize=20;" parent="77e6c97f196da883-1" vertex="1">
          <mxGeometry x="160" y="20" width="160" height="730" as="geometry" />
        </mxCell>
        <mxCell id="77e6c97f196da883-12" value="" style="rounded=1;whiteSpace=wrap;html=1;shadow=0;labelBackgroundColor=none;strokeWidth=1;fontFamily=Verdana;fontSize=8;align=center;" parent="77e6c97f196da883-4" vertex="1">
          <mxGeometry x="30" y="155" width="100" height="60" as="geometry" />
        </mxCell>
        <mxCell id="77e6c97f196da883-13" value="" style="rhombus;whiteSpace=wrap;html=1;rounded=0;shadow=0;labelBackgroundColor=none;strokeWidth=1;fontFamily=Verdana;fontSize=8;align=center;" parent="77e6c97f196da883-4" vertex="1">
          <mxGeometry x="40" y="240" width="80" height="60" as="geometry" />
        </mxCell>
        <mxCell id="77e6c97f196da883-14" value="" style="rounded=1;whiteSpace=wrap;html=1;shadow=0;labelBackgroundColor=none;strokeWidth=1;fontFamily=Verdana;fontSize=8;align=center;" parent="77e6c97f196da883-4" vertex="1">
          <mxGeometry x="30" y="560" width="100" height="60" as="geometry" />
        </mxCell>
        <mxCell id="77e6c97f196da883-29" style="edgeStyle=orthogonalEdgeStyle;rounded=1;html=1;labelBackgroundColor=none;startArrow=none;startFill=0;startSize=5;endArrow=classicThin;endFill=1;endSize=5;jettySize=auto;orthogonalLoop=1;strokeWidth=1;fontFamily=Verdana;fontSize=8" parent="77e6c97f196da883-4" source="77e6c97f196da883-12" target="77e6c97f196da883-13" edge="1">
          <mxGeometry relative="1" as="geometry" />
        </mxCell>
        <mxCell id="77e6c97f196da883-5" value="Lane 4" style="swimlane;html=1;startSize=20;" parent="77e6c97f196da883-1" vertex="1">
          <mxGeometry x="320" y="20" width="160" height="730" as="geometry" />
        </mxCell>
        <mxCell id="77e6c97f196da883-15" value="" style="rounded=1;whiteSpace=wrap;html=1;shadow=0;labelBackgroundColor=none;strokeWidth=1;fontFamily=Verdana;fontSize=8;align=center;" parent="77e6c97f196da883-5" vertex="1">
          <mxGeometry x="30" y="240" width="100" height="60" as="geometry" />
        </mxCell>
        <mxCell id="77e6c97f196da883-16" value="" style="rhombus;whiteSpace=wrap;html=1;rounded=0;shadow=0;labelBackgroundColor=none;strokeWidth=1;fontFamily=Verdana;fontSize=8;align=center;" parent="77e6c97f196da883-5" vertex="1">
          <mxGeometry x="40" y="320" width="80" height="60" as="geometry" />
        </mxCell>
        <mxCell id="77e6c97f196da883-17" value="" style="rounded=1;whiteSpace=wrap;html=1;shadow=0;labelBackgroundColor=none;strokeWidth=1;fontFamily=Verdana;fontSize=8;align=center;" parent="77e6c97f196da883-5" vertex="1">
          <mxGeometry x="30" y="400" width="100" height="60" as="geometry" />
        </mxCell>
        <mxCell id="77e6c97f196da883-19" value="" style="rounded=1;whiteSpace=wrap;html=1;shadow=0;labelBackgroundColor=none;strokeWidth=1;fontFamily=Verdana;fontSize=8;align=center;" parent="77e6c97f196da883-5" vertex="1">
          <mxGeometry x="30" y="560" width="100" height="60" as="geometry" />
        </mxCell>
        <mxCell id="77e6c97f196da883-20" value="" style="rhombus;whiteSpace=wrap;html=1;rounded=0;shadow=0;labelBackgroundColor=none;strokeWidth=1;fontFamily=Verdana;fontSize=8;align=center;" parent="77e6c97f196da883-5" vertex="1">
          <mxGeometry x="40" y="640" width="80" height="60" as="geometry" />
        </mxCell>
        <mxCell id="77e6c97f196da883-34" style="edgeStyle=orthogonalEdgeStyle;rounded=1;html=1;labelBackgroundColor=none;startArrow=none;startFill=0;startSize=5;endArrow=classicThin;endFill=1;endSize=5;jettySize=auto;orthogonalLoop=1;strokeColor=#000000;strokeWidth=1;fontFamily=Verdana;fontSize=8;fontColor=#000000;" parent="77e6c97f196da883-5" source="77e6c97f196da883-15" target="77e6c97f196da883-16" edge="1">
          <mxGeometry relative="1" as="geometry" />
        </mxCell>
        <mxCell id="77e6c97f196da883-35" style="edgeStyle=orthogonalEdgeStyle;rounded=1;html=1;labelBackgroundColor=none;startArrow=none;startFill=0;startSize=5;endArrow=classicThin;endFill=1;endSize=5;jettySize=auto;orthogonalLoop=1;strokeWidth=1;fontFamily=Verdana;fontSize=8" parent="77e6c97f196da883-5" source="77e6c97f196da883-16" target="77e6c97f196da883-17" edge="1">
          <mxGeometry relative="1" as="geometry" />
        </mxCell>
        <mxCell id="77e6c97f196da883-36" style="edgeStyle=orthogonalEdgeStyle;rounded=1;html=1;labelBackgroundColor=none;startArrow=none;startFill=0;startSize=5;endArrow=classicThin;endFill=1;endSize=5;jettySize=auto;orthogonalLoop=1;strokeWidth=1;fontFamily=Verdana;fontSize=8" parent="77e6c97f196da883-5" source="77e6c97f196da883-19" target="77e6c97f196da883-20" edge="1">
          <mxGeometry relative="1" as="geometry" />
        </mxCell>
        <mxCell id="77e6c97f196da883-6" value="Lane 5" style="swimlane;html=1;startSize=20;" parent="77e6c97f196da883-1" vertex="1">
          <mxGeometry x="480" y="20" width="160" height="730" as="geometry" />
        </mxCell>
        <mxCell id="77e6c97f196da883-18" value="" style="rounded=1;whiteSpace=wrap;html=1;shadow=0;labelBackgroundColor=none;strokeWidth=1;fontFamily=Verdana;fontSize=8;align=center;" parent="77e6c97f196da883-6" vertex="1">
          <mxGeometry x="30" y="400" width="100" height="60" as="geometry" />
        </mxCell>
        <mxCell id="77e6c97f196da883-21" value="" style="rounded=1;whiteSpace=wrap;html=1;shadow=0;labelBackgroundColor=none;strokeWidth=1;fontFamily=Verdana;fontSize=8;align=center;" parent="77e6c97f196da883-6" vertex="1">
          <mxGeometry x="30" y="480" width="100" height="60" as="geometry" />
        </mxCell>
        <mxCell id="77e6c97f196da883-22" value="" style="rounded=1;whiteSpace=wrap;html=1;shadow=0;labelBackgroundColor=none;strokeWidth=1;fontFamily=Verdana;fontSize=8;align=center;" parent="77e6c97f196da883-6" vertex="1">
          <mxGeometry x="30" y="560" width="100" height="60" as="geometry" />
        </mxCell>
        <mxCell id="77e6c97f196da883-23" value="" style="rounded=1;whiteSpace=wrap;html=1;shadow=0;labelBackgroundColor=none;strokeWidth=1;fontFamily=Verdana;fontSize=8;align=center;" parent="77e6c97f196da883-6" vertex="1">
          <mxGeometry x="30" y="640" width="100" height="60" as="geometry" />
        </mxCell>
        <mxCell id="77e6c97f196da883-37" style="edgeStyle=orthogonalEdgeStyle;rounded=1;html=1;labelBackgroundColor=none;startArrow=none;startFill=0;startSize=5;endArrow=classicThin;endFill=1;endSize=5;jettySize=auto;orthogonalLoop=1;strokeWidth=1;fontFamily=Verdana;fontSize=8" parent="77e6c97f196da883-6" source="77e6c97f196da883-18" target="77e6c97f196da883-21" edge="1">
          <mxGeometry relative="1" as="geometry" />
        </mxCell>
        <mxCell id="77e6c97f196da883-38" style="edgeStyle=orthogonalEdgeStyle;rounded=1;html=1;labelBackgroundColor=none;startArrow=none;startFill=0;startSize=5;endArrow=classicThin;endFill=1;endSize=5;jettySize=auto;orthogonalLoop=1;strokeWidth=1;fontFamily=Verdana;fontSize=8" parent="77e6c97f196da883-6" source="77e6c97f196da883-21" target="77e6c97f196da883-22" edge="1">
          <mxGeometry relative="1" as="geometry" />
        </mxCell>
        <mxCell id="77e6c97f196da883-7" value="Lane 6" style="swimlane;html=1;startSize=20;" parent="77e6c97f196da883-1" vertex="1">
          <mxGeometry x="640" y="20" width="160" height="730" as="geometry" />
        </mxCell>
        <mxCell id="77e6c97f196da883-24" value="" style="rounded=1;whiteSpace=wrap;html=1;shadow=0;labelBackgroundColor=none;strokeWidth=1;fontFamily=Verdana;fontSize=8;align=center;" parent="77e6c97f196da883-7" vertex="1">
          <mxGeometry x="30" y="640" width="100" height="60" as="geometry" />
        </mxCell>
        <mxCell id="77e6c97f196da883-2" value="审核人员" style="swimlane;html=1;startSize=20;" parent="1" vertex="1">
          <mxGeometry x="70" y="830" width="160" height="730" as="geometry" />
        </mxCell>
        <mxCell id="77e6c97f196da883-8" value="" style="rounded=1;whiteSpace=wrap;html=1;shadow=0;labelBackgroundColor=none;strokeWidth=1;fontFamily=Verdana;fontSize=8;align=center;" parent="77e6c97f196da883-2" vertex="1">
          <mxGeometry x="30" y="100" width="100" height="60" as="geometry" />
        </mxCell>
        <mxCell id="77e6c97f196da883-9" value="" style="rounded=1;whiteSpace=wrap;html=1;shadow=0;labelBackgroundColor=none;strokeWidth=1;fontFamily=Verdana;fontSize=8;align=center;" parent="77e6c97f196da883-2" vertex="1">
          <mxGeometry x="30" y="310" width="100" height="60" as="geometry" />
        </mxCell>
        <mxCell id="jWi33uT6TW_KzkSrqu7e-1" value="外包" style="shape=umlActor;verticalLabelPosition=bottom;verticalAlign=top;html=1;outlineConnect=0;" vertex="1" parent="77e6c97f196da883-2">
          <mxGeometry x="65" y="109" width="25" height="30" as="geometry" />
        </mxCell>
        <mxCell id="jWi33uT6TW_KzkSrqu7e-2" value="oms运营" style="shape=umlActor;verticalLabelPosition=bottom;verticalAlign=top;html=1;outlineConnect=0;" vertex="1" parent="77e6c97f196da883-2">
          <mxGeometry x="67.5" y="314" width="20" height="30" as="geometry" />
        </mxCell>
        <mxCell id="jWi33uT6TW_KzkSrqu7e-3" value="打标" style="swimlane;html=1;startSize=20;" vertex="1" parent="1">
          <mxGeometry x="230" y="830" width="220" height="730" as="geometry" />
        </mxCell>
        <mxCell id="jWi33uT6TW_KzkSrqu7e-27" value="Y" style="edgeStyle=orthogonalEdgeStyle;rounded=0;orthogonalLoop=1;jettySize=auto;html=1;exitX=0.5;exitY=1;exitDx=0;exitDy=0;entryX=0.5;entryY=0;entryDx=0;entryDy=0;" edge="1" parent="jWi33uT6TW_KzkSrqu7e-3" source="jWi33uT6TW_KzkSrqu7e-14" target="jWi33uT6TW_KzkSrqu7e-18">
          <mxGeometry relative="1" as="geometry" />
        </mxCell>
        <mxCell id="jWi33uT6TW_KzkSrqu7e-32" style="edgeStyle=orthogonalEdgeStyle;rounded=0;orthogonalLoop=1;jettySize=auto;html=1;exitX=1;exitY=0.5;exitDx=0;exitDy=0;entryX=0.5;entryY=0;entryDx=0;entryDy=0;" edge="1" parent="jWi33uT6TW_KzkSrqu7e-3" source="jWi33uT6TW_KzkSrqu7e-14" target="jWi33uT6TW_KzkSrqu7e-31">
          <mxGeometry relative="1" as="geometry" />
        </mxCell>
        <mxCell id="jWi33uT6TW_KzkSrqu7e-14" value="查询该记录是否存在" style="rhombus;whiteSpace=wrap;html=1;" vertex="1" parent="jWi33uT6TW_KzkSrqu7e-3">
          <mxGeometry x="30" y="90" width="70" height="60" as="geometry" />
        </mxCell>
        <mxCell id="jWi33uT6TW_KzkSrqu7e-28" value="Y" style="edgeStyle=orthogonalEdgeStyle;rounded=0;orthogonalLoop=1;jettySize=auto;html=1;exitX=0.5;exitY=1;exitDx=0;exitDy=0;entryX=0.5;entryY=0;entryDx=0;entryDy=0;" edge="1" parent="jWi33uT6TW_KzkSrqu7e-3" source="jWi33uT6TW_KzkSrqu7e-18" target="jWi33uT6TW_KzkSrqu7e-24">
          <mxGeometry relative="1" as="geometry" />
        </mxCell>
        <mxCell id="jWi33uT6TW_KzkSrqu7e-18" value="是否存在下一级记录" style="rhombus;whiteSpace=wrap;html=1;" vertex="1" parent="jWi33uT6TW_KzkSrqu7e-3">
          <mxGeometry x="30" y="180" width="70" height="60" as="geometry" />
        </mxCell>
        <mxCell id="jWi33uT6TW_KzkSrqu7e-29" value="Y" style="edgeStyle=orthogonalEdgeStyle;rounded=0;orthogonalLoop=1;jettySize=auto;html=1;exitX=0.5;exitY=1;exitDx=0;exitDy=0;entryX=0.5;entryY=0;entryDx=0;entryDy=0;" edge="1" parent="jWi33uT6TW_KzkSrqu7e-3" source="jWi33uT6TW_KzkSrqu7e-24" target="jWi33uT6TW_KzkSrqu7e-25">
          <mxGeometry relative="1" as="geometry" />
        </mxCell>
        <mxCell id="jWi33uT6TW_KzkSrqu7e-34" style="edgeStyle=orthogonalEdgeStyle;rounded=0;orthogonalLoop=1;jettySize=auto;html=1;exitX=1;exitY=0.5;exitDx=0;exitDy=0;entryX=0;entryY=0.5;entryDx=0;entryDy=0;" edge="1" parent="jWi33uT6TW_KzkSrqu7e-3" source="jWi33uT6TW_KzkSrqu7e-24" target="jWi33uT6TW_KzkSrqu7e-31">
          <mxGeometry relative="1" as="geometry" />
        </mxCell>
        <mxCell id="jWi33uT6TW_KzkSrqu7e-24" value="标签是否为空" style="rhombus;whiteSpace=wrap;html=1;" vertex="1" parent="jWi33uT6TW_KzkSrqu7e-3">
          <mxGeometry x="32.5" y="280" width="65" height="60" as="geometry" />
        </mxCell>
        <mxCell id="jWi33uT6TW_KzkSrqu7e-30" value="Y" style="edgeStyle=orthogonalEdgeStyle;rounded=0;orthogonalLoop=1;jettySize=auto;html=1;exitX=0.5;exitY=1;exitDx=0;exitDy=0;entryX=0.5;entryY=0;entryDx=0;entryDy=0;" edge="1" parent="jWi33uT6TW_KzkSrqu7e-3" source="jWi33uT6TW_KzkSrqu7e-25" target="jWi33uT6TW_KzkSrqu7e-26">
          <mxGeometry relative="1" as="geometry" />
        </mxCell>
        <mxCell id="jWi33uT6TW_KzkSrqu7e-35" style="edgeStyle=orthogonalEdgeStyle;rounded=0;orthogonalLoop=1;jettySize=auto;html=1;exitX=1;exitY=0.5;exitDx=0;exitDy=0;entryX=0.5;entryY=1;entryDx=0;entryDy=0;" edge="1" parent="jWi33uT6TW_KzkSrqu7e-3" source="jWi33uT6TW_KzkSrqu7e-25" target="jWi33uT6TW_KzkSrqu7e-31">
          <mxGeometry relative="1" as="geometry" />
        </mxCell>
        <mxCell id="jWi33uT6TW_KzkSrqu7e-25" value="该条记录是否已审核" style="rhombus;whiteSpace=wrap;html=1;" vertex="1" parent="jWi33uT6TW_KzkSrqu7e-3">
          <mxGeometry x="32.5" y="370" width="65" height="60" as="geometry" />
        </mxCell>
        <mxCell id="jWi33uT6TW_KzkSrqu7e-26" value="标签状态是否是启用状态" style="rhombus;whiteSpace=wrap;html=1;" vertex="1" parent="jWi33uT6TW_KzkSrqu7e-3">
          <mxGeometry x="32.5" y="460" width="65" height="60" as="geometry" />
        </mxCell>
        <mxCell id="jWi33uT6TW_KzkSrqu7e-31" value="end" style="ellipse;whiteSpace=wrap;html=1;" vertex="1" parent="jWi33uT6TW_KzkSrqu7e-3">
          <mxGeometry x="130" y="280" width="60" height="50" as="geometry" />
        </mxCell>
        <mxCell id="jWi33uT6TW_KzkSrqu7e-11" value="流转" style="swimlane;html=1;startSize=20;" vertex="1" parent="1">
          <mxGeometry x="470" y="830" width="160" height="730" as="geometry" />
        </mxCell>
        <mxCell id="jWi33uT6TW_KzkSrqu7e-12" value="" style="rounded=1;whiteSpace=wrap;html=1;shadow=0;labelBackgroundColor=none;strokeWidth=1;fontFamily=Verdana;fontSize=8;align=center;" vertex="1" parent="jWi33uT6TW_KzkSrqu7e-11">
          <mxGeometry x="40" y="190" width="100" height="60" as="geometry" />
        </mxCell>
        <mxCell id="jWi33uT6TW_KzkSrqu7e-15" style="edgeStyle=orthogonalEdgeStyle;rounded=0;orthogonalLoop=1;jettySize=auto;html=1;exitX=1;exitY=0.5;exitDx=0;exitDy=0;entryX=0;entryY=0.5;entryDx=0;entryDy=0;" edge="1" parent="1" source="77e6c97f196da883-8" target="jWi33uT6TW_KzkSrqu7e-14">
          <mxGeometry relative="1" as="geometry" />
        </mxCell>
        <mxCell id="jWi33uT6TW_KzkSrqu7e-33" style="edgeStyle=orthogonalEdgeStyle;rounded=0;orthogonalLoop=1;jettySize=auto;html=1;exitX=1;exitY=0.5;exitDx=0;exitDy=0;" edge="1" parent="1" source="jWi33uT6TW_KzkSrqu7e-18">
          <mxGeometry relative="1" as="geometry">
            <mxPoint x="390" y="1110" as="targetPoint" />
          </mxGeometry>
        </mxCell>
        <mxCell id="jWi33uT6TW_KzkSrqu7e-36" style="edgeStyle=orthogonalEdgeStyle;rounded=0;orthogonalLoop=1;jettySize=auto;html=1;exitX=1;exitY=0.5;exitDx=0;exitDy=0;" edge="1" parent="1" source="jWi33uT6TW_KzkSrqu7e-26">
          <mxGeometry relative="1" as="geometry">
            <mxPoint x="390" y="1170" as="targetPoint" />
          </mxGeometry>
        </mxCell>
        <mxCell id="jWi33uT6TW_KzkSrqu7e-37" value="Y" style="edgeStyle=orthogonalEdgeStyle;rounded=0;orthogonalLoop=1;jettySize=auto;html=1;exitX=0.5;exitY=1;exitDx=0;exitDy=0;" edge="1" parent="1" source="jWi33uT6TW_KzkSrqu7e-26">
          <mxGeometry relative="1" as="geometry">
            <mxPoint x="295" y="1410" as="targetPoint" />
          </mxGeometry>
        </mxCell>
      </root>
    </mxGraphModel>
  </diagram>
</mxfile>
